<?xml version="1.0" encoding="UTF-8" standalone="no"?>
<!-- Created with Inkscape (http://www.inkscape.org/) -->

<svg
   width="52.863453mm"
   height="32.361343mm"
   viewBox="0 0 52.863453 32.361343"
   version="1.1"
   id="svg5"
   inkscape:version="1.2.2 (732a01da63, 2022-12-09)"
   sodipodi:docname="test_dessin.svg"
   xmlns:inkscape="http://www.inkscape.org/namespaces/inkscape"
   xmlns:sodipodi="http://sodipodi.sourceforge.net/DTD/sodipodi-0.dtd"
   xmlns="http://www.w3.org/2000/svg"
   xmlns:svg="http://www.w3.org/2000/svg">
  <sodipodi:namedview
     id="namedview7"
     pagecolor="#ffffff"
     bordercolor="#000000"
     borderopacity="0.25"
     inkscape:showpageshadow="2"
     inkscape:pageopacity="0.0"
     inkscape:pagecheckerboard="0"
     inkscape:deskcolor="#d1d1d1"
     inkscape:document-units="mm"
     showgrid="false"
     inkscape:zoom="0.99276681"
     inkscape:cx="216.56647"
     inkscape:cy="873.31687"
     inkscape:window-width="1920"
     inkscape:window-height="986"
     inkscape:window-x="-11"
     inkscape:window-y="-11"
     inkscape:window-maximized="1"
     inkscape:current-layer="layer1" />
  <defs
     id="defs2">
    <linearGradient
       id="linearGradient13454"
       inkscape:swatch="solid">
      <stop
         style="stop-color:#000000;stop-opacity:1;"
         offset="0"
         id="stop13452" />
    </linearGradient>
    <inkscape:path-effect
       effect="spiro"
       id="path-effect8009"
       is_visible="true"
       lpeversion="1" />
  </defs>
  <g
     inkscape:label="Calque 1"
     inkscape:groupmode="layer"
     id="layer1"
     transform="translate(-19.298031,-241.74641)">
    <path
       style="opacity:1;fill:#00cf4b;fill-opacity:1;stroke-width:0.264583"
       d="M -9.594398,233.46368 180.69449,261.98037"
       id="path8007"
       inkscape:path-effect="#path-effect8009"
       inkscape:original-d="m -9.594398,233.46368 c 80.796714,9.64307 114.985608,36.88373 190.288888,28.51669" />
    <a
       id="a30959"
       style="image-rendering:auto"
       inkscape:export-filename="..\DatavizPlantP2\images\logo.svg"
       inkscape:export-xdpi="96"
       inkscape:export-ydpi="96">
      <g
         id="g30951"
         transform="translate(-1.1710041,5.0637101)">
        <path
           id="path28032"
           style="opacity:0.84264;fill:#292f1a;fill-opacity:1;fill-rule:nonzero;stroke:none;stroke-width:0.304884"
           d="m 33.575212,257.18482 a 17.926939,18.653908 0 0 0 -13.106177,5.92987 17.926939,18.653908 0 0 0 13.106177,5.92935 17.926939,18.653908 0 0 0 13.106176,-5.92987 17.926939,18.653908 0 0 0 -13.106176,-5.92935 z"
           inkscape:transform-center-x="13.325553" />
        <path
           id="path28034"
           style="opacity:0.84264;fill:#a2ad99;fill-opacity:1;fill-rule:nonzero;stroke:none;stroke-width:0.304884"
           d="m 38.325303,251.31646 a 17.926939,18.653908 30 0 0 -14.315218,-1.41767 17.926939,18.653908 30 0 0 8.385608,11.68806 17.926939,18.653908 30 0 0 14.315216,1.41767 17.926939,18.653908 30 0 0 -8.385606,-11.68806 z"
           inkscape:transform-center-x="13.325553" />
        <path
           id="path28036"
           style="opacity:0.84264;fill:#e9efe2;fill-opacity:1;fill-rule:nonzero;stroke:none;stroke-width:0.304884"
           d="m 52.830374,249.78888 a 18.653908,17.926939 0 0 0 -5.92987,-13.10618 18.653908,17.926939 0 0 0 -5.92935,13.10618 18.653908,17.926939 0 0 0 5.92987,13.10617 18.653908,17.926939 0 0 0 5.92935,-13.10617 z"
           inkscape:transform-center-x="13.325553" />
        <path
           id="path28038"
           style="opacity:0.84264;fill:#a2ad99;fill-opacity:1;fill-rule:nonzero;stroke:none;stroke-width:0.304884"
           d="m 61.405836,261.58685 a 18.653908,17.926939 60 0 0 8.385348,-11.68851 18.653908,17.926939 60 0 0 -14.314958,1.41812 18.653908,17.926939 60 0 0 -8.385346,11.68851 18.653908,17.926939 60 0 0 14.314956,-1.41812 z"
           inkscape:transform-center-x="13.325553" />
        <path
           id="path28040"
           style="opacity:0.84264;fill:#292f1a;fill-opacity:1;fill-rule:nonzero;stroke:none;stroke-width:0.304884"
           d="m 60.226317,269.04404 a 17.926939,18.653908 0 0 0 13.106177,-5.92987 17.926939,18.653908 0 0 0 -13.106177,-5.92935 17.926939,18.653908 0 0 0 -13.106176,5.92987 17.926939,18.653908 0 0 0 13.106176,5.92935 z"
           inkscape:transform-center-x="13.325553" />
      </g>
    </a>
  </g>
</svg>
